 4d 54 68 64 00 00 00 06 00 01 00 03 00 80 4d 54 72 6b 00 00 02 1d 00 ff 01 3e 64 65 73 63 72 69 70 74 69 6f 6e 63 31 20 6f 63 74 3a 32 20 73 63 61 6c 65 3a 48 49 52 41 4a 4f 53 48 49 20 6c 6f 6f 70 73 3a 35 30 20 75 6e 69 74 3a 31 36 20 66 61 63 74 6f 72 3a 31 36 81 40 90 24 3c 81 60 80 24 3c 20 90 28 75 81 70 80 28 75 81 50 90 2f 69 82 50 80 2f 69 81 70 90 23 6a 82 20 80 23 6a 70 90 2f 21 81 10 80 2f 21 70 90 30 44 81 70 80 30 44 30 90 1f 74 81 40 80 1f 74 20 90 2a 36 81 70 80 2a 36 81 10 90 1f 7c 81 40 80 1f 7c 81 50 90 1e 5b 81 60 80 1e 5b 70 90 23 32 82 20 80 23 32 81 40 90 2f 79 82 00 80 2f 79 81 20 90 23 4b 81 70 80 23 4b 81 70 90 24 30 82 10 80 24 30 81 50 90 2b 70 82 20 80 2b 70 30 90 1f 29 82 20 80 1f 29 60 90 1c 66 81 10 80 1c 66 81 50 90 1c 68 82 20 80 1c 68 81 30 90 28 7e 81 70 80 28 7e 81 00 90 24 78 82 10 80 24 78 81 10 90 24 3a 82 00 80 24 3a 60 90 1c 70 82 30 80 1c 70 81 40 90 23 3a 81 60 80 23 3a 30 90 1f 44 81 00 80 1f 44 81 60 90 1c 51 82 60 80 1c 51 20 90 1e 1f 81 40 80 1e 1f 60 90 18 3d 82 20 80 18 3d 81 00 90 24 53 82 60 80 24 53 40 90 24 2e 82 00 80 24 2e 81 70 90 28 70 82 40 80 28 70 50 90 2f 5f 81 40 80 2f 5f 30 90 1f 42 60 80 1f 42 81 30 90 1f 57 83 20 80 1f 57 81 30 90 1c 22 83 30 80 1c 22 81 50 90 18 79 83 10 80 18 79 82 00 90 28 6c 82 30 80 28 6c 30 90 18 4e 50 80 18 4e 30 90 2a 24 82 20 80 2a 24 50 90 1e 30 81 30 80 1e 30 20 90 2b 72 82 10 80 2b 72 81 60 90 1f 72 82 50 80 1f 72 10 90 2f 6d 81 70 80 2f 6d 30 90 1c 42 81 70 80 1c 42 81 20 90 23 62 82 00 80 23 62 60 90 2a 53 81 60 80 2a 53 60 90 1e 43 81 70 80 1e 43 70 90 2f 1f 82 20 80 2f 1f 40 90 1e 7d 81 00 80 1e 7d 60 90 1e 5e 81 10 80 1e 5e 40 90 2f 73 81 30 80 2f 73 00 ff 2f 00 4d 54 72 6b 00 00 03 ad 00 ff 01 3e 64 65 73 63 72 69 70 74 69 6f 6e 63 33 20 6f 63 74 3a 34 20 73 63 61 6c 65 3a 48 49 52 41 4a 4f 53 48 49 20 6c 6f 6f 70 73 3a 31 30 30 20 75 6e 69 74 3a 31 36 20 66 61 63 74 6f 72 3a 38 30 90 34 2b 60 80 34 2b 50 90 4f 40 60 80 4f 40 20 90 42 5f 81 10 80 42 5f 50 90 54 72 81 00 80 54 72 40 90 48 5b 50 80 48 5b 60 90 5f 65 81 10 80 5f 65 40 90 5b 47 60 80 5b 47 70 90 43 33 81 60 80 43 33 30 90 54 3b 81 20 80 54 3b 70 90 43 21 81 20 80 43 21 70 90 40 33 81 50 80 40 33 20 90 54 4d 81 10 80 54 4d 10 90 42 24 60 80 42 24 50 90 48 2a 81 00 80 48 2a 40 90 58 7e 70 80 58 7e 60 90 3c 5c 81 00 80 3c 5c 60 90 3b 21 81 30 80 3b 21 60 90 40 3f 81 00 80 40 3f 50 90 53 4d 81 40 80 53 4d 50 90 5a 61 81 40 80 5a 61 20 90 37 2c 81 00 80 37 2c 40 90 42 7a 50 80 42 7a 50 90 42 23 81 20 80 42 23 50 90 5a 31 81 30 80 5a 31 70 90 58 47 81 20 80 58 47 10 90 47 4c 81 00 80 47 4c 20 90 3c 5d 30 80 3c 5d 40 90 4c 2d 70 80 4c 2d 60 90 4f 41 81 10 80 4f 41 70 90 60 24 81 50 80 60 24 50 90 5a 31 81 00 80 5a 31 70 90 40 3a 81 30 80 40 3a 30 90 34 55 70 80 34 55 81 00 90 4f 77 82 00 80 4f 77 40 90 5a 63 81 00 80 5a 63 70 90 40 71 81 00 80 40 71 10 90 43 2a 81 00 80 43 2a 60 90 53 6e 81 60 80 53 6e 40 90 40 63 70 80 40 63 20 90 54 4d 40 80 54 4d 60 90 3c 6d 81 30 80 3c 6d 10 90 5f 49 70 80 5f 49 40 90 53 4d 81 40 80 53 4d 30 90 5a 4b 40 80 5a 4b 40 90 42 42 70 80 42 42 60 90 47 7e 81 40 80 47 7e 70 90 42 73 81 50 80 42 73 10 90 60 62 40 80 60 62 40 90 4c 4f 60 80 4c 4f 70 90 37 6d 81 60 80 37 6d 30 90 34 5c 81 20 80 34 5c 30 90 43 35 60 80 43 35 30 90 4e 49 81 10 80 4e 49 70 90 5a 41 81 30 80 5a 41 40 90 58 3e 81 30 80 58 3e 10 90 48 6d 60 80 48 6d 30 90 36 25 81 20 80 36 25 40 90 5b 5e 81 40 80 5b 5e 10 90 34 69 81 10 80 34 69 10 90 34 69 60 80 34 69 30 90 5f 70 70 80 5f 70 50 90 34 22 81 40 80 34 22 60 90 36 24 81 40 80 36 24 60 90 3b 4a 81 20 80 3b 4a 70 90 4e 52 81 40 80 4e 52 50 90 37 3e 81 30 80 37 3e 70 90 60 60 81 40 80 60 60 30 90 5f 4d 70 80 5f 4d 40 90 5a 6c 81 30 80 5a 6c 30 90 3b 64 81 20 80 3b 64 40 90 5b 55 81 00 80 5b 55 30 90 3b 30 70 80 3b 30 40 90 5b 2f 81 20 80 5b 2f 20 90 53 33 60 80 53 33 20 90 43 72 30 80 43 72 60 90 47 21 81 20 80 47 21 50 90 47 76 81 00 80 47 76 50 90 43 66 81 30 80 43 66 20 90 4e 22 81 00 80 4e 22 60 90 4e 44 81 00 80 4e 44 30 90 36 28 81 00 80 36 28 70 90 53 41 81 30 80 53 41 30 90 34 49 60 80 34 49 60 90 5b 6a 81 10 80 5b 6a 70 90 42 5e 81 60 80 42 5e 50 90 48 24 70 80 48 24 30 90 53 56 81 10 80 53 56 60 90 4c 53 81 00 80 4c 53 70 90 4f 20 81 00 80 4f 20 30 90 53 31 81 10 80 53 31 30 90 54 4f 60 80 54 4f 10 90 34 6e 70 80 34 6e 70 90 36 21 81 70 80 36 21 60 90 37 22 81 10 80 37 22 81 00 90 3c 22 82 00 80 3c 22 50 90 40 52 81 20 80 40 52 40 90 37 7d 81 30 80 37 7d 40 90 4c 48 70 80 4c 48 70 90 53 52 81 10 80 53 52 30 90 36 33 50 80 36 33 00 ff 2f 00 4d 54 72 6b 00 00 03 aa 00 ff 01 3e 64 65 73 63 72 69 70 74 69 6f 6e 63 34 20 6f 63 74 3a 33 20 73 63 61 6c 65 3a 48 49 52 41 4a 4f 53 48 49 20 6c 6f 6f 70 73 3a 31 30 30 20 75 6e 69 74 3a 31 36 20 66 61 63 74 6f 72 3a 38 30 90 60 53 81 30 80 60 53 70 90 4e 72 81 20 80 4e 72 30 90 4f 7c 60 80 4f 7c 20 90 58 2b 81 00 80 58 2b 70 90 42 5b 81 40 80 42 5b 20 90 47 3d 60 80 47 3d 60 90 47 77 81 00 80 47 77 70 90 47 44 81 20 80 47 44 50 90 4c 4a 81 00 80 4c 4a 81 00 90 53 51 81 50 80 53 51 20 90 4c 28 30 80 4c 28 60 90 5a 57 81 20 80 5a 57 60 90 5f 43 81 60 80 5f 43 20 90 4e 54 60 80 4e 54 60 90 60 6f 81 10 80 60 6f 70 90 47 2a 81 40 80 47 2a 81 00 90 4c 32 81 30 80 4c 32 30 90 40 69 70 80 40 69 40 90 58 5a 81 20 80 58 5a 10 90 48 3f 60 80 48 3f 70 90 42 60 81 20 80 42 60 30 90 43 36 60 80 43 36 60 90 53 2e 70 80 53 2e 10 90 58 54 81 00 80 58 54 20 90 47 37 40 80 47 37 60 90 5f 54 81 60 80 5f 54 30 90 48 5f 81 10 80 48 5f 30 90 42 5c 81 00 80 42 5c 20 90 4e 7a 70 80 4e 7a 70 90 60 69 81 40 80 60 69 60 90 4c 33 81 00 80 4c 33 60 90 60 48 70 80 60 48 70 90 43 51 81 00 80 43 51 20 90 53 67 70 80 53 67 10 90 48 1f 81 00 80 48 1f 10 90 53 39 81 00 80 53 39 40 90 47 66 50 80 47 66 30 90 5f 26 50 80 5f 26 60 90 42 44 81 60 80 42 44 10 90 4f 7e 81 10 80 4f 7e 70 90 58 42 81 20 80 58 42 50 90 4f 2f 81 20 80 4f 2f 50 90 40 30 81 50 80 40 30 40 90 48 53 81 10 80 48 53 50 90 4c 21 70 80 4c 21 60 90 5b 5a 81 30 80 5b 5a 50 90 4c 6d 81 10 80 4c 6d 30 90 4f 5c 70 80 4f 5c 30 90 54 7b 81 30 80 54 7b 70 90 48 52 81 00 80 48 52 50 90 5f 27 70 80 5f 27 20 90 53 33 70 80 53 33 70 90 42 29 81 70 80 42 29 20 90 5f 7a 60 80 5f 7a 30 90 40 74 70 80 40 74 30 90 4f 3e 50 80 4f 3e 40 90 40 46 81 00 80 40 46 70 90 53 64 81 20 80 53 64 50 90 5f 20 81 10 80 5f 20 30 90 42 2c 60 80 42 2c 50 90 54 2f 81 20 80 54 2f 20 90 47 3e 70 80 47 3e 70 90 42 24 81 30 80 42 24 30 90 5b 6a 40 80 5b 6a 70 90 40 68 81 50 80 40 68 20 90 58 30 70 80 58 30 30 90 4f 29 81 30 80 4f 29 10 90 3c 2c 60 80 3c 2c 50 90 60 5a 81 00 80 60 5a 40 90 47 38 81 10 80 47 38 50 90 48 60 81 20 80 48 60 81 00 90 5b 37 82 00 80 5b 37 60 90 5f 40 81 20 80 5f 40 50 90 3c 3f 81 20 80 3c 3f 70 90 5b 75 81 20 80 5b 75 30 90 43 4a 81 00 80 43 4a 40 90 4e 76 60 80 4e 76 60 90 4c 2b 81 20 80 4c 2b 30 90 4c 29 40 80 4c 29 30 90 47 34 50 80 47 34 40 90 5a 6d 81 00 80 5a 6d 20 90 4e 72 81 00 80 4e 72 20 90 48 68 70 80 48 68 30 90 48 72 60 80 48 72 40 90 47 20 50 80 47 20 60 90 43 59 81 10 80 43 59 60 90 48 74 81 50 80 48 74 30 90 5a 4e 81 20 80 5a 4e 20 90 5a 3d 81 20 80 5a 3d 50 90 43 37 81 50 80 43 37 40 90 4c 44 81 00 80 4c 44 60 90 5b 25 81 00 80 5b 25 50 90 4e 3d 60 80 4e 3d 60 90 4c 62 81 30 80 4c 62 50 90 42 41 70 80 42 41 20 90 53 72 60 80 53 72 10 90 47 5c 81 10 80 47 5c 50 90 47 25 81 20 80 47 25 60 90 5b 7c 81 00 80 5b 7c 60 90 48 31 81 40 80 48 31 00 ff 2f 00